<svg width="19" height="19" viewBox="0 0 19 19" fill="none" xmlns="http://www.w3.org/2000/svg">
<path d="M7.33333 3.20833H11C11 2.7221 10.8068 2.25579 10.463 1.91197C10.1192 1.56815 9.6529 1.375 9.16667 1.375C8.68044 1.375 8.21412 1.56815 7.8703 1.91197C7.52649 2.25579 7.33333 2.7221 7.33333 3.20833ZM5.95833 3.20833C5.95833 2.78701 6.04132 2.36981 6.20255 1.98056C6.36379 1.5913 6.60011 1.23762 6.89803 0.939699C7.19595 0.641778 7.54964 0.405454 7.93889 0.24422C8.32814 0.082986 8.74534 0 9.16667 0C9.58799 0 10.0052 0.082986 10.3944 0.24422C10.7837 0.405454 11.1374 0.641778 11.4353 0.939699C11.7332 1.23762 11.9695 1.5913 12.1308 1.98056C12.292 2.36981 12.375 2.78701 12.375 3.20833H17.6458C17.8282 3.20833 18.003 3.28077 18.132 3.4097C18.2609 3.53863 18.3333 3.7135 18.3333 3.89583C18.3333 4.07817 18.2609 4.25304 18.132 4.38197C18.003 4.5109 17.8282 4.58333 17.6458 4.58333H16.4358L15.3633 15.6851C15.2811 16.5357 14.8849 17.3252 14.252 17.8996C13.6192 18.474 12.7951 18.792 11.9405 18.7917H6.39283C5.53838 18.7918 4.71451 18.4736 4.08187 17.8993C3.44923 17.3249 3.05317 16.5356 2.97092 15.6851L1.8975 4.58333H0.6875C0.505164 4.58333 0.330295 4.5109 0.201364 4.38197C0.0724327 4.25304 0 4.07817 0 3.89583C0 3.7135 0.0724327 3.53863 0.201364 3.4097C0.330295 3.28077 0.505164 3.20833 0.6875 3.20833H5.95833ZM7.79167 7.5625C7.79167 7.38016 7.71923 7.2053 7.5903 7.07636C7.46137 6.94743 7.2865 6.875 7.10417 6.875C6.92183 6.875 6.74696 6.94743 6.61803 7.07636C6.4891 7.2053 6.41667 7.38016 6.41667 7.5625V14.4375C6.41667 14.6198 6.4891 14.7947 6.61803 14.9236C6.74696 15.0526 6.92183 15.125 7.10417 15.125C7.2865 15.125 7.46137 15.0526 7.5903 14.9236C7.71923 14.7947 7.79167 14.6198 7.79167 14.4375V7.5625ZM11.2292 6.875C11.4115 6.875 11.5864 6.94743 11.7153 7.07636C11.8442 7.2053 11.9167 7.38016 11.9167 7.5625V14.4375C11.9167 14.6198 11.8442 14.7947 11.7153 14.9236C11.5864 15.0526 11.4115 15.125 11.2292 15.125C11.0468 15.125 10.872 15.0526 10.743 14.9236C10.6141 14.7947 10.5417 14.6198 10.5417 14.4375V7.5625C10.5417 7.38016 10.6141 7.2053 10.743 7.07636C10.872 6.94743 11.0468 6.875 11.2292 6.875ZM4.3395 15.5531C4.38894 16.0633 4.62664 16.5369 5.00625 16.8814C5.38587 17.226 5.88018 17.4168 6.39283 17.4167H11.9405C12.4531 17.4168 12.9475 17.226 13.3271 16.8814C13.7067 16.5369 13.9444 16.0633 13.9938 15.5531L15.0553 4.58333H3.278L4.3395 15.5531Z" fill="#D8D8D8"/>
</svg>
