<svg width="24" height="24" viewBox="0 0 24 24" fill="none" xmlns="http://www.w3.org/2000/svg">
<path d="M15.2142 12C15.1028 12 14.9828 11.9829 14.8713 11.9486C14.6582 11.8766 14.4731 11.7393 14.3423 11.5562C14.2116 11.3732 14.1417 11.1536 14.1428 10.9286V9.42001C12.9428 9.30858 11.9999 8.29715 11.9999 7.07144V4.07144C11.9999 2.76858 13.0542 1.71429 14.357 1.71429H19.9285C21.2313 1.71429 22.2856 2.76858 22.2856 4.07144V7.07144C22.2856 8.37429 21.2313 9.42858 19.9285 9.42858H17.6828L16.0713 11.5714C15.8656 11.8457 15.5485 12 15.2142 12ZM14.357 3.00001C13.7656 3.00001 13.2856 3.48001 13.2856 4.07144V7.07144C13.2856 7.66287 13.7656 8.14287 14.357 8.14287H15.4285V10.2857L17.0399 8.14287H19.937C20.5285 8.14287 21.0085 7.66287 21.0085 7.07144V4.07144C21.0085 3.48001 20.5285 3.00001 19.937 3.00001H14.357ZM8.14276 14.1429C7.17731 14.1406 6.25205 13.7561 5.56937 13.0734C4.88669 12.3907 4.50217 11.4655 4.4999 10.5C4.50217 9.53456 4.88669 8.6093 5.56937 7.92662C6.25205 7.24394 7.17731 6.85942 8.14276 6.85715C9.10821 6.85942 10.0335 7.24394 10.7161 7.92662C11.3988 8.6093 11.7834 9.53456 11.7856 10.5C11.7834 11.4655 11.3988 12.3907 10.7161 13.0734C10.0335 13.7561 9.10821 14.1406 8.14276 14.1429ZM8.14276 8.14287C6.8399 8.14287 5.78562 9.19715 5.78562 10.5C5.78562 11.8029 6.8399 12.8572 8.14276 12.8572C9.44562 12.8572 10.4999 11.8029 10.4999 10.5C10.4999 9.19715 9.44562 8.14287 8.14276 8.14287ZM2.97505 20.5029C4.0979 21.6857 5.8379 22.2857 8.14362 22.2857C10.4493 22.2857 12.1893 21.6857 13.3122 20.5029C14.6168 19.1229 14.5748 17.4574 14.5722 17.3452V17.34C14.5722 16.2857 13.715 15.4286 12.6608 15.4286H3.62647C2.57219 15.4286 1.71505 16.2857 1.71505 17.3057V17.3169C1.71162 17.4797 1.67905 19.1314 2.97505 20.5029ZM3.00076 17.34C3.00076 16.9972 3.28362 16.7143 3.62647 16.7143H12.6608C13.0036 16.7143 13.2865 16.9972 13.2865 17.3743V17.376C13.2681 18.2099 12.9449 19.0082 12.3779 19.62C11.5122 20.5372 10.0722 21 8.14362 21C6.21505 21 4.80076 20.5457 3.92647 19.6372C3.33741 19.0206 3.00624 18.2022 3.00076 17.3494V17.34Z" fill="black"/>
</svg>
