<svg width="28" height="28" viewBox="0 0 28 28" fill="none" xmlns="http://www.w3.org/2000/svg">
<path d="M17.7498 14C17.6198 14 17.4798 13.98 17.3498 13.94C17.1011 13.856 16.8852 13.6959 16.7326 13.4823C16.5801 13.2687 16.4986 13.0125 16.4998 12.75V10.99C15.0998 10.86 13.9998 9.68 13.9998 8.25V4.75C13.9998 3.23 15.2298 2 16.7498 2H23.2498C24.7698 2 25.9998 3.23 25.9998 4.75V8.25C25.9998 9.77 24.7698 11 23.2498 11H20.6298L18.7498 13.5C18.5098 13.82 18.1398 14 17.7498 14ZM9.49981 16.5C8.37345 16.4974 7.29398 16.0487 6.49752 15.2523C5.70106 14.4558 5.25245 13.3764 5.24981 12.25C5.25245 11.1236 5.70106 10.0442 6.49752 9.24771C7.29398 8.45126 8.37345 8.00264 9.49981 8C10.6262 8.00264 11.7056 8.45126 12.5021 9.24771C13.2986 10.0442 13.7472 11.1236 13.7498 12.25C13.7472 13.3764 13.2986 14.4558 12.5021 15.2523C11.7056 16.0487 10.6262 16.4974 9.49981 16.5ZM3.47081 23.92C4.78081 25.3 6.81081 26 9.50081 26C12.1908 26 14.2208 25.3 15.5308 23.92C17.0528 22.31 17.0038 20.367 17.0008 20.236V20.23C17.0008 19 16.0008 18 14.7708 18H4.23081C3.00081 18 2.00081 19 2.00081 20.19V20.203C1.99681 20.393 1.95881 22.32 3.47081 23.92Z" fill="#FF5631"/>
</svg>
