<svg width="24" height="24" viewBox="0 0 24 24" fill="none" xmlns="http://www.w3.org/2000/svg">
<path d="M17.9282 19.634H20.0662C20.2542 19.637 20.4402 19.5943 20.6082 19.5098C20.7762 19.4252 20.9213 19.3012 21.0309 19.1484C21.1406 18.9956 21.2116 18.8185 21.238 18.6323C21.2643 18.4461 21.2452 18.2562 21.1822 18.079C20.637 16.9121 19.774 15.9226 18.692 15.2239C17.61 14.5252 16.353 14.1458 15.0652 14.129M15.0652 11.37C15.5464 11.3701 16.023 11.2755 16.4676 11.0914C16.9123 10.9073 17.3163 10.6374 17.6567 10.2972C17.997 9.95695 18.267 9.55299 18.4512 9.10839C18.6354 8.66378 18.7302 8.18725 18.7302 7.706C18.7315 7.22392 18.6377 6.74631 18.4541 6.30055C18.2705 5.85479 18.0007 5.44965 17.6602 5.10834C17.3197 4.76704 16.9153 4.49628 16.47 4.31158C16.0247 4.12688 15.5473 4.03187 15.0652 4.032M9.34018 11.485C10.4419 11.4824 11.4976 11.0428 12.2756 10.2627C13.0537 9.4826 13.4905 8.42575 13.4902 7.324C13.4902 6.22309 13.0528 5.16727 12.2744 4.3888C11.4959 3.61034 10.4401 3.173 9.33918 3.173C8.23827 3.173 7.18245 3.61034 6.40398 4.3888C5.62552 5.16727 5.18818 6.22309 5.18818 7.324C5.18818 8.42575 5.62523 9.4825 6.40344 10.2624C7.18164 11.0423 8.23744 11.4816 9.33918 11.484M14.0252 20.827C14.3774 20.8265 14.7227 20.7286 15.0226 20.5439C15.3226 20.3593 15.5656 20.0953 15.7248 19.781C15.8839 19.4668 15.9529 19.1146 15.9243 18.7636C15.8956 18.4125 15.7702 18.0762 15.5622 17.792C14.8333 16.8245 13.895 16.0344 12.8175 15.4809C11.74 14.9274 10.5512 14.6249 9.34018 14.596C8.1291 14.625 6.94028 14.9277 5.86276 15.4814C4.78524 16.035 3.84696 16.8253 3.11818 17.793C2.91084 18.0773 2.78608 18.4133 2.75769 18.764C2.7293 19.1147 2.79838 19.4664 2.95729 19.7803C3.11621 20.0942 3.35878 20.358 3.65823 20.5428C3.95768 20.7275 4.30235 20.8258 4.65418 20.827H14.0252Z" stroke="black" stroke-width="1.2" stroke-linecap="round" stroke-linejoin="round"/>
</svg>
