<svg width="24" height="24" viewBox="0 0 24 24" fill="none" xmlns="http://www.w3.org/2000/svg">
<path d="M21.9868 18.73C21.9407 19.0358 21.8243 19.3268 21.6468 19.58C21.4701 19.8288 21.2361 20.0314 20.9646 20.1707C20.6931 20.3099 20.392 20.3817 20.0868 20.38H18.4358C18.3184 20.3797 18.2027 20.3514 18.0984 20.2975C17.9941 20.2435 17.9041 20.1656 17.8358 20.07C17.7668 19.9745 17.7209 19.8643 17.7018 19.748C17.6827 19.6317 17.691 19.5126 17.7258 19.4C18.0958 18.22 18.0158 16.89 14.6648 14.76C14.5283 14.6706 14.4237 14.54 14.3661 14.3872C14.3086 14.2344 14.3012 14.0673 14.3448 13.91C14.3917 13.7551 14.4868 13.6191 14.6163 13.522C14.7458 13.4248 14.9029 13.3716 15.0648 13.37C16.4951 13.3895 17.8909 13.8116 19.0922 14.5881C20.2935 15.3646 21.2517 16.4639 21.8568 17.76C21.9798 18.0676 22.0245 18.4009 21.9868 18.73ZM19.4858 7.70001C19.4832 8.87163 19.0165 9.99449 18.188 10.8229C17.3594 11.6512 16.2364 12.1176 15.0648 12.12C14.9336 12.1176 14.8052 12.0813 14.6921 12.0145C14.5791 11.9478 14.4853 11.8529 14.4198 11.7391C14.3544 11.6253 14.3195 11.4965 14.3186 11.3652C14.3177 11.2339 14.3509 11.1047 14.4148 10.99C15.0268 10.0109 15.3513 8.8796 15.3513 7.72501C15.3513 6.57042 15.0268 5.43908 14.4148 4.46001C14.3364 4.34793 14.2901 4.21652 14.281 4.08002C14.2718 3.94351 14.3002 3.80711 14.3631 3.68559C14.4259 3.56406 14.5207 3.46203 14.6374 3.39054C14.754 3.31905 14.888 3.28083 15.0248 3.28001C15.6103 3.27852 16.1899 3.3966 16.7281 3.62702C17.2663 3.85744 17.7518 4.19534 18.1548 4.62001C18.9774 5.45063 19.441 6.57101 19.4458 7.74001L19.4858 7.70001Z" fill="#FF5631"/>
<path d="M16.6749 18.7C16.7154 19.1895 16.619 19.6807 16.3965 20.1186C16.174 20.5566 15.8342 20.924 15.4149 21.18C14.9969 21.437 14.5149 21.572 14.0249 21.57H4.65194C4.16129 21.5722 3.67982 21.4371 3.26194 21.18C2.84174 20.9256 2.50155 20.5581 2.28017 20.1196C2.05879 19.6811 1.96515 19.1892 2.00994 18.7C2.04621 18.2119 2.21953 17.744 2.50994 17.35C3.30725 16.2892 4.33415 15.4224 5.51381 14.8146C6.69346 14.2067 7.99531 13.8736 9.32194 13.84C10.6531 13.8664 11.9609 14.1953 13.1462 14.8016C14.3316 15.408 15.3635 16.276 16.1639 17.34C16.455 17.7382 16.6324 18.2086 16.6749 18.7ZM14.2449 7.32001C14.2423 8.62003 13.7253 9.86617 12.8067 10.7862C11.8882 11.7062 10.6429 12.2253 9.34294 12.23C8.61911 12.2282 7.90466 12.0662 7.25088 11.7556C6.5971 11.4449 6.0202 10.9934 5.56161 10.4334C5.10302 9.87336 4.77412 9.21875 4.59851 8.51655C4.4229 7.81435 4.40495 7.08197 4.54594 6.37201C4.68752 5.66187 4.98473 4.99194 5.4162 4.41041C5.84766 3.82888 6.40265 3.3502 7.04125 3.00881C7.67984 2.66743 8.38615 2.47182 9.10939 2.43606C9.83262 2.4003 10.5548 2.52528 11.2239 2.80201C12.1188 3.1715 12.8842 3.79782 13.4235 4.60191C13.9628 5.406 14.2517 6.35183 14.2539 7.32001H14.2449Z" fill="#FF5631"/>
</svg>
