<svg width="24" height="24" viewBox="0 0 24 24" fill="none" xmlns="http://www.w3.org/2000/svg">
<path d="M12.6075 3.22499C12.438 3.08074 12.2226 3.00153 12 3.00153C11.7774 3.00153 11.562 3.08074 11.3925 3.22499L4.08 9.44099C3.97646 9.52908 3.89332 9.63863 3.83634 9.76205C3.77936 9.88547 3.7499 10.0198 3.75 10.1557V19.875C3.75 19.9745 3.78951 20.0698 3.85984 20.1402C3.93016 20.2105 4.02554 20.25 4.125 20.25H7.875C7.97446 20.25 8.06984 20.2105 8.14017 20.1402C8.21049 20.0698 8.25 19.9745 8.25 19.875V14.625C8.25 14.1277 8.44754 13.6508 8.79917 13.2992C9.15081 12.9475 9.62772 12.75 10.125 12.75H13.878C14.1242 12.75 14.368 12.7985 14.5955 12.8927C14.823 12.9869 15.0297 13.1251 15.2038 13.2992C15.3779 13.4733 15.516 13.68 15.6103 13.9075C15.7045 14.1349 15.753 14.3788 15.753 14.625V19.875C15.753 19.9745 15.7925 20.0698 15.8628 20.1402C15.9332 20.2105 16.0285 20.25 16.128 20.25H19.875C19.9745 20.25 20.0698 20.2105 20.1402 20.1402C20.2105 20.0698 20.25 19.9745 20.25 19.875V10.155C20.25 10.0192 20.2205 9.88499 20.1635 9.76171C20.1065 9.63843 20.0234 9.529 19.92 9.44099L12.6075 3.22499ZM10.4213 2.08274C10.862 1.70809 11.4216 1.50238 12 1.50238C12.5784 1.50238 13.138 1.70809 13.5787 2.08274L20.8912 8.29799C21.1604 8.52681 21.3766 8.81139 21.5249 9.13203C21.6732 9.45268 21.75 9.80172 21.75 10.155V19.875C21.75 20.3723 21.5525 20.8492 21.2008 21.2008C20.8492 21.5525 20.3723 21.75 19.875 21.75H16.128C15.6307 21.75 15.1538 21.5525 14.8022 21.2008C14.4505 20.8492 14.253 20.3723 14.253 19.875V14.625C14.253 14.5255 14.2135 14.4302 14.1432 14.3598C14.0728 14.2895 13.9775 14.25 13.878 14.25H10.125C10.0255 14.25 9.93016 14.2895 9.85983 14.3598C9.78951 14.4302 9.75 14.5255 9.75 14.625V19.875C9.75 20.3723 9.55246 20.8492 9.20083 21.2008C8.84919 21.5525 8.37228 21.75 7.875 21.75H4.125C3.62772 21.75 3.15081 21.5525 2.79917 21.2008C2.44754 20.8492 2.25 20.3723 2.25 19.875V10.155C2.25002 9.80172 2.32683 9.45268 2.47511 9.13203C2.62339 8.81139 2.83959 8.52681 3.10875 8.29799L10.4213 2.08274Z" fill="black"/>
</svg>
