<svg width="92" height="30" viewBox="0 0 92 30" fill="none" xmlns="http://www.w3.org/2000/svg">
<path d="M11.7211 6.83538C11.6985 7.68981 11.4548 8.35437 10.99 8.83047C10.5281 9.30373 9.99811 9.53895 9.39732 9.53895C8.86737 9.53895 8.38277 9.35475 7.94068 8.9835C7.50142 8.61367 7.17835 8.18717 6.97147 7.70256C6.34801 7.91086 5.88466 8.28635 5.58285 8.83047C5.28386 9.37175 5.08691 9.97821 4.99339 10.6499C4.9027 11.3187 4.85736 11.9308 4.85736 12.4862C4.85736 12.9255 4.87436 13.556 4.90837 14.3793C4.94238 15.1997 5.01039 16.0839 5.11241 17.0319C5.21727 17.977 5.36322 18.8838 5.54884 19.7524C5.73304 20.6182 5.96401 21.3224 6.24032 21.8666C6.51946 22.4107 6.86662 22.6827 7.2832 22.6827C7.65303 22.6827 7.91942 22.4588 8.08237 22.0083C8.24391 21.5548 8.34309 21.0164 8.3771 20.3929C8.41111 19.7694 8.43945 19.1687 8.46212 18.5905C8.48479 18.0124 8.54289 17.5859 8.63782 17.3096C8.0597 17.0985 7.61902 16.7796 7.31721 16.3517C7.01823 15.9252 6.86945 15.493 6.86945 15.0538C6.86945 14.521 7.08199 14.0761 7.50992 13.7162C7.93643 13.3577 8.47912 13.0856 9.13659 12.9C9.7969 12.7158 10.4742 12.6223 11.1657 12.6223C12.3219 12.6223 13.1778 12.7625 13.7332 13.0417C14.2887 13.318 14.6528 13.6467 14.8271 14.0279C15 14.4105 15.0879 14.752 15.0879 15.0538C15.0879 15.493 14.9476 15.9082 14.6684 16.3007C14.3921 16.6946 13.9883 17.0177 13.4555 17.2699C13.4555 17.5731 13.4612 17.8693 13.4725 18.1598C13.4838 18.4474 13.4895 18.7407 13.4895 19.0383C13.4895 20.5658 13.2982 21.9827 12.9171 23.2892C12.5387 24.597 11.8926 25.6442 10.9787 26.4292C10.0633 27.2156 8.82061 27.6081 7.2492 27.6081C6.11562 27.6081 5.14359 27.3247 4.33592 26.7579C3.52683 26.1911 2.8566 25.4472 2.32382 24.5248C1.79104 23.5995 1.36737 22.575 1.05422 21.4528C0.743907 20.3306 0.512942 19.2027 0.362743 18.0691C0.215379 16.9355 0.116191 15.8841 0.0680144 14.9121C0.0226715 13.9415 0 13.155 0 12.5543C0 11.3753 0.137446 10.2078 0.413754 9.05152C0.692896 7.89527 1.13357 6.83821 1.73437 5.87751C2.33516 4.91823 3.12016 4.15731 4.0922 3.59336C5.06282 3.02658 6.2304 2.74318 7.59494 2.74318C8.58823 2.74318 9.48942 3.05492 10.2985 3.67838C11.1104 4.30185 11.5851 5.35465 11.7211 6.83538Z" fill="#FF5631"/>
<path d="M20.7726 3.74646C21.6979 3.74646 22.4135 3.96042 22.9207 4.38693C23.4308 4.81485 23.6859 5.3533 23.6859 6.00227C23.6859 6.58039 23.6321 7.23503 23.5272 7.96335C23.4252 8.68884 23.3203 9.39449 23.2155 10.0775C23.1134 10.7576 23.0624 11.3414 23.0624 11.8288C23.0624 11.9195 23.0681 12.2426 23.0794 12.798C23.0908 13.3535 23.1305 14.0365 23.1985 14.8441C23.2693 15.6532 23.3926 16.5091 23.5669 17.4117C23.7397 18.3157 23.9877 19.1545 24.3094 19.9282C24.6339 20.7033 25.0689 21.3395 25.613 21.8383C26.1571 22.3342 26.8216 22.5808 27.6081 22.5808C28.5291 22.5808 29.2631 22.3399 29.8072 21.8553C30.3513 21.3678 30.7438 20.76 30.9861 20.0302C31.227 19.3019 31.3489 18.5778 31.3489 17.8594C31.3489 16.7301 31.2157 15.6206 30.9521 14.5324C30.6871 13.4442 30.4392 12.3588 30.2096 11.2734C30.0467 10.4161 29.9177 9.60703 29.8242 8.84754C29.7335 8.08521 29.6513 7.27471 29.5805 6.41602C29.7647 5.6537 30.0878 5.07557 30.5497 4.68166C31.0144 4.28916 31.5019 4.0922 32.012 4.0922C32.4952 4.0922 32.9614 4.26649 33.412 4.61364C33.8654 4.96222 34.1955 5.50633 34.4038 6.24599C34.5172 7.49292 34.7113 8.73701 34.9876 9.97544C35.2668 11.211 35.5332 12.4466 35.7868 13.6822C36.0433 14.9178 36.1722 16.1846 36.1722 17.4797C36.1722 19.377 35.8236 21.0717 35.1293 22.5638C34.4378 24.053 33.4771 25.2262 32.25 26.0835C31.0258 26.9379 29.6272 27.3644 28.0558 27.3644C26.3668 27.3644 24.9045 26.9833 23.6689 26.2195C22.4333 25.4572 21.4088 24.4455 20.5969 23.1872C19.7878 21.9261 19.187 20.5333 18.7945 19.01C18.4006 17.4839 18.2051 15.9692 18.2051 14.4644C18.2051 13.2373 18.2221 12.1505 18.2561 11.2054C18.2929 10.2574 18.3241 9.23862 18.3468 8.15039C18.3694 7.45891 18.4148 6.82411 18.4828 6.24599C18.5537 5.66787 18.7506 5.16626 19.0723 4.73834C19.3967 4.30758 19.9635 3.97743 20.7726 3.74646Z" fill="#FF5631"/>
<path d="M50.8049 22.7848C50.7369 23.9906 50.3883 25.1483 49.762 26.2592C49.1385 27.3673 48.3351 28.2656 47.3532 28.9571C46.3698 29.6514 45.3014 30 44.1451 30C43.3587 30 42.6885 29.7917 42.1331 29.3765C41.5804 28.9599 41.3055 28.3818 41.3055 27.6422C41.3055 27.1094 41.4883 26.5029 41.8553 25.8228C42.2252 25.1398 42.6885 24.6595 43.244 24.3831C44.0516 23.9906 44.6524 23.5868 45.0463 23.1702C45.4431 22.7551 45.6415 22.2223 45.6415 21.5719C45.6415 20.9711 45.4502 20.3136 45.069 19.5995C44.6864 18.8825 44.2075 18.1882 43.6294 17.5194C43.0513 16.8477 42.4476 16.2668 41.8213 15.7793C40.9442 14.9717 40.3038 14.2263 39.8999 13.5462C39.4947 12.8632 39.2935 12.1972 39.2935 11.5511C39.2935 10.6938 39.5939 9.70622 40.1946 8.58681C40.7954 7.46458 41.6088 6.34801 42.6375 5.23711C43.669 4.1262 44.8593 3.13291 46.2083 2.25581C47.56 1.37587 48.977 0.750992 50.4591 0.379747C50.6207 0.289061 50.7709 0.204043 50.9069 0.124693C51.0458 0.0425088 51.2441 0 51.502 0C52.1028 0 52.6498 0.123276 53.1457 0.368411C53.6445 0.610712 54.0427 0.899773 54.3416 1.23559C54.6434 1.56858 54.7951 1.88598 54.7951 2.1878C54.7951 2.76592 54.5683 3.18251 54.1149 3.43473C53.6643 3.68836 53.2322 3.90799 52.817 4.0922C51.6834 4.55696 50.6193 5.11241 49.626 5.75855C48.6313 6.40469 47.6266 7.02815 46.6107 7.62894C46.0099 8.00019 45.4261 8.51596 44.8593 9.17627C44.2925 9.83374 44.0091 10.5224 44.0091 11.2394C44.0091 11.5384 44.0828 11.8501 44.2302 12.1746C44.3804 12.5005 44.6298 12.8009 44.9783 13.0758C45.9489 13.8622 46.8785 14.752 47.7669 15.7453C48.6582 16.74 49.3936 17.7914 49.9717 18.9023C50.5498 20.0132 50.8389 21.1355 50.8389 22.269C50.8389 22.3597 50.8332 22.4476 50.8219 22.5298C50.8106 22.6091 50.8049 22.6941 50.8049 22.7848Z" fill="#FF5631"/>
<path d="M59.3721 17.3776C59.4175 16.244 59.4855 15.1105 59.5762 13.9769C59.6697 12.8433 59.7179 11.7466 59.7179 10.6839C59.7179 10.0349 59.6357 9.58855 59.4742 9.34625C59.3112 9.10537 58.9768 8.98351 58.471 8.98351C58.0997 8.98351 57.6718 9.02035 57.1843 9.0912C56.6997 9.15921 56.2265 9.19322 55.7617 9.19322C55.2998 9.19322 54.8322 9.14221 54.3561 9.04019C53.8828 8.93533 53.4903 8.73838 53.1772 8.45073C52.8669 8.16025 52.7124 7.75925 52.7124 7.24914C52.7124 6.78863 52.8966 6.4018 53.2679 6.08723C53.6377 5.77408 54.1124 5.52611 54.6905 5.34474C55.2686 5.16054 55.8581 5.03301 56.4589 4.96499C57.0597 4.89415 57.5896 4.85731 58.0515 4.85731C59.3693 4.85731 60.6758 4.96216 61.968 5.16904C63.2631 5.37733 64.554 5.58563 65.8392 5.7925C67.1229 6.0008 68.4237 6.10424 69.7387 6.10424C69.9229 6.10424 70.1142 6.10424 70.3111 6.10424C70.5067 6.10424 70.7093 6.0929 70.9176 6.07023C71.1741 6.0929 71.4801 6.20342 71.8358 6.39896C72.1943 6.59592 72.5173 6.84531 72.805 7.14712C73.0955 7.4461 73.2414 7.76917 73.2414 8.11633C73.2414 8.67178 73.0558 9.07136 72.686 9.31225C72.319 9.55455 71.8981 9.70616 71.422 9.76568C70.9488 9.82235 70.5506 9.85069 70.2261 9.85069C69.6026 9.85069 68.965 9.83369 68.316 9.79968C67.6699 9.76568 67.0464 9.74867 66.4456 9.74867C66.029 9.74867 65.7343 9.79685 65.5614 9.89037C65.3872 9.98105 65.2724 10.1596 65.2157 10.4231C65.159 10.6881 65.0825 11.0976 64.989 11.6531C64.7354 13.3421 64.6036 15.0255 64.5922 16.7031C64.5809 18.378 64.5497 20.0585 64.5016 21.7475C64.4789 22.6742 64.4024 23.4904 64.2748 24.1961C64.1502 24.8989 63.9249 25.4529 63.6004 25.8567C63.2787 26.262 62.7814 26.4632 62.1097 26.4632C61.1604 26.4632 60.4207 26.2393 59.8879 25.7887C59.358 25.3353 59.0944 24.6934 59.0944 23.8617C59.0944 22.7734 59.1398 21.688 59.2304 20.6026C59.324 19.5144 59.3835 18.4403 59.4061 17.3776C59.4061 17.3776 59.4005 17.3776 59.3891 17.3776C59.3778 17.3776 59.3721 17.3776 59.3721 17.3776Z" fill="#FF5631"/>
<path d="M74.2832 14.1526C74.2832 12.3474 74.5779 10.6881 75.1674 9.17625C75.7568 7.66151 76.6637 6.45425 77.888 5.55448C79.1151 4.65187 80.7006 4.19986 82.6433 4.19986C84.192 4.19986 85.5367 4.59378 86.6788 5.37878C87.8237 6.16519 88.7773 7.218 89.5411 8.53578C90.3034 9.85072 90.8759 11.33 91.2585 12.9737C91.6396 14.6146 91.8309 16.2894 91.8309 18.0011C91.8309 19.0893 91.6566 20.2059 91.3095 21.3508C90.9651 22.4929 90.4451 23.5542 89.7508 24.5362C89.0551 25.5195 88.2162 26.313 87.2343 26.9167C86.2509 27.5175 85.1145 27.8178 83.8222 27.8178C82.571 27.8178 81.4375 27.5231 80.4215 26.9337C79.4041 26.3442 78.5143 25.5592 77.7519 24.5758C76.9882 23.5896 76.3463 22.4957 75.8249 21.2941C75.3063 20.0926 74.9194 18.874 74.6629 17.6384C74.4093 16.3999 74.2832 15.238 74.2832 14.1526ZM83.6125 22.7508C84.3522 22.7508 84.9756 22.5326 85.4829 22.0933C85.993 21.6555 86.3798 21.0717 86.6448 20.3419C86.9126 19.6136 87.0472 18.8442 87.0472 18.0351C87.0472 17.4797 86.9934 16.8208 86.8885 16.057C86.7865 15.2947 86.6179 14.5083 86.3841 13.6992C86.1531 12.8915 85.8584 12.1405 85.4999 11.4491C85.1442 10.7547 84.7121 10.1936 84.202 9.7657C83.6919 9.33495 83.1137 9.11957 82.4676 9.11957C81.2887 9.11957 80.4272 9.58858 79.8831 10.5252C79.3389 11.4632 79.0669 12.5798 79.0669 13.8749C79.0669 14.2688 79.1179 14.8186 79.2199 15.5243C79.3248 16.2271 79.4877 16.9965 79.7073 17.8311C79.9298 18.6628 80.2132 19.4549 80.5575 20.2059C80.9047 20.9541 81.334 21.5662 81.8441 22.0423C82.3542 22.5156 82.9437 22.7508 83.6125 22.7508Z" fill="#FF5631"/>
</svg>
