<svg width="20" height="20" viewBox="0 0 20 20" fill="none" xmlns="http://www.w3.org/2000/svg">
<path d="M9.99967 2.70834C10.1654 2.70834 10.3244 2.77418 10.4416 2.89139C10.5588 3.0086 10.6247 3.16758 10.6247 3.33334C10.6247 3.4991 10.5588 3.65807 10.4416 3.77528C10.3244 3.89249 10.1654 3.95834 9.99967 3.95834C8.39732 3.95834 6.8606 4.59487 5.72757 5.7279C4.59454 6.86093 3.95801 8.39765 3.95801 10C3.95801 11.6024 4.59454 13.1391 5.72757 14.2721C6.8606 15.4051 8.39732 16.0417 9.99967 16.0417C10.1654 16.0417 10.3244 16.1075 10.4416 16.2247C10.5588 16.3419 10.6247 16.5009 10.6247 16.6667C10.6247 16.8324 10.5588 16.9914 10.4416 17.1086C10.3244 17.2258 10.1654 17.2917 9.99967 17.2917C8.0658 17.2917 6.21114 16.5234 4.84369 15.156C3.47623 13.7885 2.70801 11.9339 2.70801 10C2.70801 8.06613 3.47623 6.21147 4.84369 4.84402C6.21114 3.47656 8.0658 2.70834 9.99967 2.70834Z" fill="black"/>
<path d="M13.7247 7.94166C13.6143 7.82318 13.5542 7.66648 13.557 7.50456C13.5599 7.34264 13.6255 7.18816 13.74 7.07365C13.8545 6.95914 14.009 6.89354 14.1709 6.89068C14.3328 6.88783 14.4895 6.94793 14.608 7.05833L17.108 9.55833C17.2251 9.67552 17.2908 9.83437 17.2908 10C17.2908 10.1656 17.2251 10.3245 17.108 10.4417L14.608 12.9417C14.5508 13.0031 14.4818 13.0523 14.4051 13.0865C14.3285 13.1206 14.2457 13.139 14.1618 13.1405C14.0779 13.142 13.9945 13.1265 13.9167 13.0951C13.8389 13.0637 13.7682 13.0169 13.7088 12.9575C13.6495 12.8982 13.6027 12.8275 13.5712 12.7497C13.5398 12.6718 13.5244 12.5885 13.5258 12.5046C13.5273 12.4206 13.5457 12.3379 13.5799 12.2612C13.614 12.1845 13.6633 12.1155 13.7247 12.0583L15.158 10.625H8.33301C8.16725 10.625 8.00828 10.5591 7.89107 10.4419C7.77386 10.3247 7.70801 10.1658 7.70801 10C7.70801 9.83424 7.77386 9.67527 7.89107 9.55806C8.00828 9.44085 8.16725 9.375 8.33301 9.375H15.158L13.7247 7.94166Z" fill="black"/>
</svg>
