<svg width="15" height="15" viewBox="0 0 15 15" fill="none" xmlns="http://www.w3.org/2000/svg">
<path d="M8.03363 2.18752C7.98047 2.09268 7.903 2.01371 7.80918 1.95875C7.71537 1.90379 7.60861 1.87482 7.49988 1.87482C7.39115 1.87482 7.28439 1.90379 7.19058 1.95875C7.09676 2.01371 7.01929 2.09268 6.96613 2.18752C6.84113 2.41502 6.72092 2.64544 6.60551 2.87877C6.24188 3.61687 5.93272 4.38057 5.68051 5.16377C5.59363 5.43315 5.33613 5.62002 5.04113 5.62815C4.14689 5.65166 3.25556 5.74043 2.37426 5.89377C1.89051 5.97877 1.70863 6.53002 2.05238 6.86627C2.13071 6.94336 2.20988 7.0194 2.28988 7.0944C2.88804 7.65931 3.5205 8.18677 4.18363 8.67377C4.41301 8.8419 4.50738 9.13002 4.41988 9.39377C4.08656 10.3957 3.84802 11.4267 3.70738 12.4731C3.64488 12.945 4.14988 13.2781 4.58863 13.0531C5.45866 12.607 6.29061 12.0903 7.07613 11.5081C7.19917 11.4183 7.34755 11.3699 7.49988 11.3699C7.65221 11.3699 7.80059 11.4183 7.92363 11.5081C8.70899 12.0905 9.54097 12.6073 10.4111 13.0531C10.8493 13.2781 11.3549 12.945 11.2924 12.4731C11.2682 12.2961 11.2418 12.12 11.213 11.945C11.0686 11.0794 10.8569 10.2264 10.5799 9.39377C10.4924 9.13002 10.5861 8.8419 10.8161 8.67377C11.5685 8.12252 12.2807 7.5185 12.9474 6.86627C13.2911 6.53002 13.1099 5.97877 12.6255 5.89377C11.7443 5.73954 10.8529 5.65076 9.95863 5.62815C9.81724 5.6259 9.67998 5.5801 9.56556 5.497C9.45114 5.4139 9.36513 5.29754 9.31926 5.16377C8.98719 4.13294 8.55666 3.13585 8.03363 2.18752Z" stroke="#FF5631" stroke-width="1.5" stroke-linecap="round" stroke-linejoin="round"/>
</svg>
