<svg width="15" height="15" viewBox="0 0 15 15" fill="none" xmlns="http://www.w3.org/2000/svg">
<path d="M8.44363 1.9619C8.03613 1.22128 6.96363 1.22128 6.5555 1.9619C6.01881 2.93714 5.57638 3.96137 5.23425 5.02065C5.21812 5.0621 5.18973 5.09764 5.15289 5.12254C5.11604 5.14744 5.07247 5.16052 5.028 5.16003C4.11111 5.18386 3.19719 5.27494 2.29363 5.43253C1.458 5.57815 1.08988 6.58065 1.72488 7.20128C1.80488 7.27961 1.88571 7.35753 1.96738 7.43503C2.57914 8.0143 3.22688 8.55433 3.90675 9.0519C3.93764 9.0724 3.96104 9.10238 3.97344 9.13731C3.98583 9.17225 3.98656 9.21027 3.9755 9.24565C3.63228 10.2755 3.38702 11.3354 3.243 12.4113C3.12425 13.3013 4.06675 13.8475 4.80238 13.47C5.69543 13.0123 6.54934 12.482 7.3555 11.8844C7.39772 11.8545 7.44816 11.8385 7.49988 11.8385C7.55159 11.8385 7.60203 11.8545 7.64425 11.8844C8.44993 12.4827 9.30391 13.0131 10.1974 13.47C10.933 13.8475 11.8755 13.3013 11.7568 12.4113C11.6129 11.3354 11.3679 10.2755 11.0249 9.24565C11.0138 9.21027 11.0145 9.17225 11.0269 9.13731C11.0393 9.10238 11.0627 9.0724 11.0936 9.0519C11.8639 8.48808 12.5929 7.86983 13.2749 7.2019C13.9099 6.58065 13.5418 5.57815 12.7061 5.43253C11.8024 5.27491 10.8882 5.18383 9.97113 5.16003C9.92676 5.16039 9.88334 5.14725 9.84661 5.12236C9.80989 5.09747 9.7816 5.06199 9.7655 5.02065C9.42445 3.96096 8.98136 2.93663 8.44363 1.9619Z" fill="#FF5631"/>
</svg>
